HIERARCHY
ROOT Hips
{
	OFFSET 0.000000 0.000000 0.000000
	CHANNELS 6 Xposition Yposition Zposition Zrotation Yrotation Xrotation 
	JOINT LowerBack
	{
		OFFSET 0.000000 0.000000 0.000000
		CHANNELS 3 Zrotation Yrotation Xrotation
		JOINT Spine
		{
			OFFSET 0.028270 2.035590 -0.193380
			CHANNELS 3 Zrotation Yrotation Xrotation
			JOINT Spine1
			{
				OFFSET 0.056720 2.048850 -0.042750
				CHANNELS 3 Zrotation Yrotation Xrotation
				JOINT Neck
				{
					OFFSET 0.000000 0.000000 0.000000
					CHANNELS 3 Zrotation Yrotation Xrotation
					JOINT Neck1
					{
						OFFSET -0.054170 1.746240 0.172020
						CHANNELS 3 Zrotation Yrotation Xrotation
						JOINT Head
						{
							OFFSET 0.104070 1.761360 -0.123970
							CHANNELS 3 Zrotation Yrotation Xrotation
							End Site
							{
								OFFSET 0.000000 0.000000 0.000000
							}
						}
					}
				}
				JOINT LeftShoulder
				{
					OFFSET 0.000000 0.000000 0.000000
					CHANNELS 3 Zrotation Yrotation Xrotation
					JOINT LeftArm
					{
						OFFSET 3.362410 1.200890 -0.311210
						CHANNELS 3 Zrotation Yrotation Xrotation
						JOINT LeftForeArm
						{
							OFFSET 4.983000 -0.000000 -0.000000
							CHANNELS 3 Zrotation Yrotation Xrotation
							JOINT LeftHand
							{
								OFFSET 3.483560 -0.000000 -0.000000
								CHANNELS 3 Zrotation Yrotation Xrotation
								JOINT LeftFingerBase
								{
									OFFSET 0.000000 0.000000 0.000000
									CHANNELS 3 Zrotation Yrotation Xrotation
									JOINT LeftHandIndex1
									{
										OFFSET 0.715260 -0.000000 -0.000000
										CHANNELS 3 Zrotation Yrotation Xrotation
										End Site
										{
											OFFSET 0.000000 0.000000 0.000000
										}
									}
								}
								JOINT LThumb
								{
									OFFSET 0.000000 0.000000 0.000000
									CHANNELS 3 Zrotation Yrotation Xrotation
									End Site
									{
										OFFSET 0.000000 0.000000 0.000000
									}
								}
							}
						}
					}
				}
				JOINT RightShoulder
				{
					OFFSET 0.000000 0.000000 0.000000
					CHANNELS 3 Zrotation Yrotation Xrotation
					JOINT RightArm
					{
						OFFSET -3.136600 1.374050 -0.404650
						CHANNELS 3 Zrotation Yrotation Xrotation
						JOINT RightForeArm
						{
							OFFSET -5.241900 -0.000000 -0.000000
							CHANNELS 3 Zrotation Yrotation Xrotation
							JOINT RightHand
							{
								OFFSET -3.444170 -0.000000 -0.000000
								CHANNELS 3 Zrotation Yrotation Xrotation
								JOINT RightFingerBase
								{
									OFFSET 0.000000 0.000000 0.000000
									CHANNELS 3 Zrotation Yrotation Xrotation
									JOINT RightHandIndex1
									{
										OFFSET -0.622530 -0.000000 -0.000000
										CHANNELS 3 Zrotation Yrotation Xrotation
										End Site
										{
											OFFSET 0.000000 0.000000 0.000000
										}
									}
								}
								JOINT RThumb
								{
									OFFSET 0.000000 0.000000 0.000000
									CHANNELS 3 Zrotation Yrotation Xrotation
									End Site
									{
										OFFSET 0.000000 0.000000 0.000000
									}
								}
							}
						}
					}
				}
			}
		}
	}
}
}
MOTION
Frames: 12
Frame Time: 0.008333
4.929259 16.900804 3.523469 -82.107207 -89.627673 82.005787 -2.740677 -0.678975 -2.229372 -0.625487 -0.513326 -2.540014 -3.046924 -0.602077 3.542336 7.350507 -16.297355 -11.504807 -0.346889 0.035712 -1.009525 0.000000 0.000000 0.000000 -5.432596 30.931189 1.669687 -77.028109 20.767470 -9.519946 -4.267408 -28.179414 -0.034760 -7.179651 13.764469 -0.861249 -0.102301 -0.083404 -0.000000 0.000000 0.000000 0.000000 0.000000 0.000000 0.000000 5.211668 -10.887209 0.410119 21.118230 16.996081 -5.453097 0.181036 58.555340 0.007065 2.309214 4.250250 0.093951 -0.060495 -0.284949 0.000000 0.000000 0.000000 0.000000 0.000000 0.000000 0.000000 
4.825812 16.866278 3.544773 -86.473112 -89.783668 86.422752 -3.090056 -0.779333 -2.273751 -0.706875 -0.593382 -2.555685 -3.104418 -0.681665 3.516494 7.560687 -16.296999 -11.510021 -0.382108 0.032865 -1.009395 0.000000 0.000000 0.000000 -5.031744 30.689181 1.674099 -76.512170 20.422996 -9.160888 -4.268399 -28.405676 -0.034436 -7.072135 13.594719 -0.837328 -0.104191 -0.080968 -0.000000 0.000000 0.000000 0.000000 0.000000 0.000000 0.000000 5.502839 -10.891684 0.348055 21.079650 17.028183 -6.121506 0.146146 59.760576 0.007250 2.383071 4.281682 0.097837 -0.065627 -0.291330 0.000000 0.000000 0.000000 0.000000 0.000000 0.000000 0.000000 
4.724911 16.834279 3.565115 -88.948619 -89.924967 88.981923 -3.413386 -0.883350 -2.336408 -0.782877 -0.679125 -2.575459 -3.161284 -0.767253 3.486944 7.755187 -16.284952 -11.512677 -0.419694 0.029761 -1.008524 0.000000 0.000000 0.000000 -4.630663 30.407738 1.682305 -75.945751 20.008197 -8.864040 -4.265943 -28.591888 -0.034054 -6.866681 13.438187 -0.802703 -0.106639 -0.077927 -0.000000 0.000000 0.000000 0.000000 0.000000 0.000000 0.000000 5.770859 -10.884835 0.277747 21.129954 17.015591 -6.798074 0.113179 61.016937 0.007160 2.381424 4.320190 0.098925 -0.069574 -0.298231 0.000000 0.000000 0.000000 0.000000 0.000000 0.000000 0.000000 
4.627010 16.805194 3.584905 89.087161 -89.971301 -88.951154 -3.683949 -0.982904 -2.406008 -0.848783 -0.763893 -2.596941 -3.218915 -0.851809 3.454826 7.938527 -16.280985 -11.516328 -0.458597 0.026558 -1.007961 0.000000 0.000000 0.000000 -4.228312 30.092136 1.693537 -75.342520 19.523383 -8.640177 -4.258712 -28.753317 -0.033675 -6.561421 13.318268 -0.758878 -0.109594 -0.074387 -0.000000 0.000000 0.000000 0.000000 0.000000 0.000000 0.000000 6.024276 -10.884034 0.201656 21.242824 16.978781 -7.459990 0.082156 62.313951 0.006702 2.289495 4.373100 0.096514 -0.072118 -0.305722 0.000000 0.000000 0.000000 0.000000 0.000000 0.000000 0.000000 
4.532342 16.779334 3.604738 86.913122 -89.919296 -86.668286 -3.880833 -1.071958 -2.470927 -0.900332 -0.842724 -2.619271 -3.276128 -0.930185 3.415864 8.099862 -16.264016 -11.516461 -0.497167 0.023325 -1.006509 0.000000 0.000000 0.000000 -3.831106 29.734476 1.708917 -74.711455 18.985613 -8.485971 -4.244410 -28.919168 -0.033303 -6.149085 13.234363 -0.705248 -0.112983 -0.070352 -0.000000 0.000000 0.000000 0.000000 0.000000 0.000000 0.000000 6.233714 -10.864059 0.122411 21.454049 16.866247 -8.136257 0.054956 63.675013 0.006096 2.161575 4.418348 0.092404 -0.073960 -0.313472 0.000000 0.000000 0.000000 0.000000 0.000000 0.000000 0.000000 
4.440848 16.757151 3.624555 84.679508 -89.912342 -84.328195 -4.014606 -1.148585 -2.523729 -0.940065 -0.912918 -2.639540 -3.334962 -0.999402 3.375109 8.257323 -16.274889 -11.521197 -0.535137 0.020241 -1.006482 0.000000 0.000000 0.000000 -3.433079 29.351894 1.725809 -74.059373 18.394068 -8.401121 -4.222600 -29.114834 -0.033021 -5.642870 13.204793 -0.643918 -0.116720 -0.065999 -0.000000 0.000000 0.000000 0.000000 0.000000 0.000000 0.000000 6.437401 -10.867305 0.042520 21.700594 16.741990 -8.773709 0.030804 65.066675 0.005117 1.955870 4.481522 0.085198 -0.074502 -0.321690 0.000000 0.000000 0.000000 0.000000 0.000000 0.000000 0.000000 
4.352594 16.738744 3.644699 81.589891 -89.955613 -81.144783 -4.075734 -1.208991 -2.559920 -0.965894 -0.971225 -2.658229 -3.393986 -1.056201 3.328231 8.399357 -16.285648 -11.524148 -0.570828 0.017345 -1.006109 0.000000 0.000000 0.000000 -3.040932 28.941586 1.744448 -73.387798 17.772796 -8.365172 -4.190787 -29.376921 -0.032784 -5.036995 13.202000 -0.572385 -0.120710 -0.061297 -0.000000 0.000000 0.000000 0.000000 0.000000 0.000000 0.000000 6.602913 -10.862293 -0.035825 22.027693 16.552102 -9.402431 0.011379 66.508109 0.004072 1.741564 4.538956 0.077193 -0.074649 -0.329945 -0.000000 0.000000 0.000000 0.000000 0.000000 0.000000 0.000000 
4.267179 16.724477 3.664771 -102.948543 -89.968219 103.472250 -4.088237 -1.252876 -2.578202 -0.983180 -1.015843 -2.673753 -3.455298 -1.098646 3.279778 8.543677 -16.329328 -11.531626 -0.604463 0.014740 -1.007136 0.000000 0.000000 0.000000 -2.651182 28.521719 1.761427 -72.692527 17.129958 -8.354534 -4.148746 -29.739325 -0.032643 -4.354844 13.225776 -0.493150 -0.124843 -0.056451 -0.000000 0.000000 0.000000 0.000000 0.000000 0.000000 0.000000 6.767384 -10.883668 -0.110395 22.381710 16.352634 -9.977922 -0.003908 67.968113 0.002806 1.490133 4.609573 0.067591 -0.073931 -0.338314 -0.000000 0.000000 0.000000 0.000000 0.000000 0.000000 0.000000 
4.184225 16.714320 3.684837 -110.039125 -89.870814 110.625756 -4.063996 -1.277796 -2.583379 -0.993755 -1.043613 -2.687877 -3.517055 -1.123862 3.227349 8.679972 -16.380229 -11.537286 -0.634427 0.012463 -1.007736 0.000000 0.000000 0.000000 -2.269402 28.098127 1.776150 -71.968324 16.488699 -8.335538 -4.095192 -30.231392 -0.032523 -3.600584 13.232935 -0.404812 -0.129064 -0.051454 -0.000000 0.000000 0.000000 0.000000 0.000000 0.000000 0.000000 6.902272 -10.903148 -0.180030 22.803926 16.103512 -10.518211 -0.014267 69.452925 0.001615 1.261372 4.676531 0.058490 -0.073143 -0.346443 -0.000000 0.000000 0.000000 0.000000 0.000000 0.000000 0.000000 
4.103232 16.708482 3.704242 -120.693759 -89.797850 121.329744 -4.060960 -1.288751 -2.578522 -1.008787 -1.055773 -2.699806 -3.580144 -1.133363 3.175068 8.825331 -16.465958 -11.546324 -0.661527 0.010561 -1.009317 0.000000 0.000000 0.000000 -1.894686 27.687459 1.785212 -71.200659 15.859510 -8.268231 -4.030887 -30.881950 -0.032446 -2.804867 13.213633 -0.310871 -0.133325 -0.046543 -0.000000 0.000000 0.000000 0.000000 0.000000 0.000000 0.000000 7.045198 -10.951641 -0.243658 23.248241 15.856558 -10.985085 -0.020472 70.933886 0.000375 1.029421 4.751124 0.049092 -0.071847 -0.354337 -0.000000 0.000000 0.000000 0.000000 0.000000 0.000000 0.000000 
4.023843 16.706892 3.722737 -135.581085 -89.816415 136.255815 -4.138977 -1.304342 -2.568518 -1.037125 -1.066797 -2.710236 -3.639611 -1.142509 3.121637 8.971566 -16.564782 -11.553313 -0.684646 0.009069 -1.010404 0.000000 0.000000 0.000000 -1.527969 27.286906 1.790000 -70.379787 15.258182 -8.117976 -3.956948 -31.701737 -0.032346 -1.984364 13.130317 -0.213526 -0.137680 -0.041670 -0.000000 0.000000 0.000000 0.000000 0.000000 0.000000 0.000000 7.175794 -11.015139 -0.303501 23.752147 15.578311 -11.388899 -0.022659 72.412124 -0.000686 0.837143 4.821569 0.041096 -0.070672 -0.361682 -0.000000 0.000000 0.000000 0.000000 0.000000 0.000000 0.000000 
3.945385 16.709582 3.739848 27.319324 -89.967969 -26.608339 -4.315675 -1.370221 -2.549303 -1.078464 -1.120865 -2.716103 -3.691526 -1.195906 3.069311 9.118219 -16.676656 -11.558528 -0.704087 0.007972 -1.011335 0.000000 0.000000 0.000000 -1.167078 26.882093 1.793954 -69.494331 14.687563 -7.853436 -3.875554 -32.690378 -0.032180 -1.165099 12.965169 -0.116774 -0.142142 -0.036740 -0.000000 0.000000 0.000000 0.000000 0.000000 0.000000 0.000000 7.298847 -11.116402 -0.365062 24.316878 15.264048 -11.720717 -0.022131 73.878752 -0.001528 0.690372 4.886088 0.034899 -0.069782 -0.368154 0.000000 0.000000 0.000000 0.000000 0.000000 0.000000 0.000000 
